<?xml version="1.0" encoding="utf-8"?>
<!-- Generator: Adobe Illustrator 16.0.0, SVG Export Plug-In . SVG Version: 6.00 Build 0)  -->
<!DOCTYPE svg PUBLIC "-//W3C//DTD SVG 1.1//EN" "http://www.w3.org/Graphics/SVG/1.1/DTD/svg11.dtd">
<svg version="1.1" id="Layer_1" xmlns="http://www.w3.org/2000/svg" xmlns:xlink="http://www.w3.org/1999/xlink" x="0px" y="0px"
	 width="485.799px" height="872px" viewBox="0 0 485.799 872" enable-background="new 0 0 485.799 872" xml:space="preserve">
<linearGradient id="SVGID_2_" gradientUnits="userSpaceOnUse" x1="223.543" y1="415.3979" x2="491.1695" y2="727.585">
	<stop  offset="0" style="stop-color:#913A0D"/>
	<stop  offset="1" style="stop-color:#DA691A"/>
</linearGradient>
<path fill="url(#SVGID_2_)" d="M442.403,91.997c-5.785-29.73-33.012-51.429-64.697-56.713c-5.762-0.956-11.564-1.775-17.397-2.472
	c-17.119-2.047-34.451-2.982-51.249-2.904c-22.521,0.105-44.036,2.026-62.962,5.374c-55.751,9.853-65.881,30.467-65.881,68.487
	v50.218h5.785h116.153h9.82v16.737h-3.857H180.217h-0.177h-49.267c-38.297,0-71.819,23.011-82.307,66.794
	c-0.968,4.019-1.836,7.885-2.656,11.684l0.053,387.522v150.381c5.925,29.553,33.076,51.102,64.65,56.363
	c5.744,0.959,11.553,1.778,17.391,2.475c17.114,2.045,34.452,2.982,51.256,2.904c22.519-0.106,44.029-2.029,62.956-5.375
	c55.757-9.853,65.875-30.467,65.875-68.487v-50.216h-5.779H186.059h-9.82v-16.736h3.857h127.896h0.183h49.271
	c38.289,0,71.812-23.014,82.299-66.796c0.968-4.021,1.839-7.885,2.659-11.686V91.997z M237.804,120.51
	c-13.654,0-24.724-11.196-24.724-25.033c0.007-13.887,11.069-25.186,24.724-25.186c13.616,0,24.726,11.297,24.726,25.186
	C262.529,109.317,251.42,120.51,237.804,120.51z M250.404,758.243c13.66,0,24.729,11.196,24.729,25.036
	c-0.006,13.884-11.068,25.18-24.729,25.18c-13.61,0-24.721-11.293-24.721-25.18C225.684,769.439,236.794,758.243,250.404,758.243z
	 M311.802,543.074c-14.688,23.262-40.662,39.498-69.686,39.498h-65.651v-145.55h-0.059V335.682
	c14.696-23.265,40.668-39.499,69.691-39.499h65.656v145.546h0.048V543.074z"/>
</svg>
