<?xml version="1.0" encoding="utf-8"?>
<!-- Generator: Adobe Illustrator 16.0.0, SVG Export Plug-In . SVG Version: 6.00 Build 0)  -->
<!DOCTYPE svg PUBLIC "-//W3C//DTD SVG 1.1//EN" "http://www.w3.org/Graphics/SVG/1.1/DTD/svg11.dtd">
<svg version="1.1" id="Layer_1" xmlns="http://www.w3.org/2000/svg" xmlns:xlink="http://www.w3.org/1999/xlink" x="0px" y="0px"
	 width="1390.848px" height="348px" viewBox="0 0 1390.848 348" enable-background="new 0 0 1390.848 348" xml:space="preserve">
<g>
	<path fill="#913A0D" d="M169.498,290.321H131.58l-6.489-43.381H78.979l-6.49,43.381H37.991l38.255-239.1h54.996L169.498,290.321z
		 M83.76,214.492h36.207L101.864,93.576L83.76,214.492z"/>
	<path fill="#913A0D" d="M224.476,157.451h48.501v34.157h-48.501v98.713h-37.574v-239.1H286.3v34.157h-61.824V157.451z"/>
	<path fill="#913A0D" d="M382.952,290.321c-2.049-6.147-3.415-9.906-3.415-29.375v-37.574c0-22.2-7.514-30.4-24.593-30.4h-12.98
		v97.35h-37.573v-239.1h56.7c38.94,0,55.679,18.104,55.679,54.991V125c0,24.594-7.858,40.648-24.594,48.505
		c18.789,7.854,24.937,25.958,24.937,50.894v36.887c0,11.615,0.339,20.154,4.098,29.035H382.952z M341.964,85.379v73.439h14.689
		c14.005,0,22.541-6.151,22.541-25.277v-23.568c0-17.081-5.805-24.594-19.126-24.594H341.964z"/>
	<path fill="#DA691A" d="M688.291,110.314v31.083c0,38.254-18.446,59.091-56.021,59.091h-17.76v89.833h-37.573v-239.1h55.333
		C669.845,51.222,688.291,72.055,688.291,110.314z M614.51,85.379v80.953h17.76c11.956,0,18.448-5.467,18.448-22.545v-35.864
		c0-17.079-6.492-22.544-18.448-22.544H614.51z"/>
	<path fill="#DA691A" d="M740.197,211.076L692.721,51.222h39.277l28.693,108.959l28.694-108.959h35.864l-47.479,159.854v79.245
		h-37.574V211.076z"/>
	<path fill="#DA691A" d="M829.335,51.222h116.137v34.157h-39.284v204.942h-37.574V85.379h-39.278V51.222z"/>
	<path fill="#DA691A" d="M999.421,290.321h-37.575v-239.1h37.575v102.472h42.697V51.222h38.255v239.1h-38.255V187.849h-42.697
		V290.321z"/>
	<path fill="#DA691A" d="M1104.61,108.606c0-38.257,20.15-60.118,57.04-60.118c36.892,0,57.044,21.86,57.044,60.118v124.33
		c0,38.257-20.152,60.118-57.044,60.118c-36.89,0-57.04-21.86-57.04-60.118V108.606z M1142.184,235.329
		c0,17.079,7.514,23.568,19.467,23.568c11.955,0,19.469-6.489,19.469-23.568V106.213c0-17.077-7.514-23.567-19.469-23.567
		c-11.953,0-19.467,6.49-19.467,23.567V235.329z"/>
	<path fill="#DA691A" d="M1276.403,117.144v173.177h-33.811v-239.1h47.136l38.597,143.117V51.222h33.474v239.1h-38.598
		L1276.403,117.144z"/>
	<linearGradient id="SVGID_2_" gradientUnits="userSpaceOnUse" x1="487.5332" y1="164.6304" x2="566.2664" y2="256.4728">
		<stop  offset="0" style="stop-color:#913A0D"/>
		<stop  offset="1" style="stop-color:#DA691A"/>
	</linearGradient>
	<path fill="url(#SVGID_2_)" d="M551.919,69.489c-1.701-8.746-9.711-15.13-19.033-16.684c-1.694-0.281-3.402-0.522-5.118-0.727
		c-5.036-0.602-10.136-0.877-15.077-0.854c-6.625,0.031-12.954,0.596-18.522,1.581c-16.401,2.898-19.381,8.963-19.381,20.148v14.773
		h1.701h34.172h2.889v4.924h-1.135h-37.627h-0.053h-14.493c-11.268,0-21.129,6.77-24.214,19.65c-0.285,1.183-0.54,2.32-0.782,3.438
		l0.017,114.005v44.241c1.742,8.694,9.729,15.033,19.019,16.581c1.69,0.282,3.399,0.523,5.117,0.728
		c5.034,0.602,10.135,0.877,15.078,0.854c6.625-0.031,12.953-0.597,18.521-1.581c16.402-2.898,19.379-8.963,19.379-20.148v-14.773
		h-1.7h-34.171h-2.889v-4.924h1.135h37.625h0.054h14.496c11.264,0,21.125-6.771,24.211-19.65c0.285-1.184,0.541-2.32,0.782-3.438
		V69.489z M491.729,77.877c-4.018,0-7.273-3.293-7.273-7.365c0.001-4.085,3.256-7.409,7.273-7.409c4.005,0,7.273,3.323,7.273,7.409
		C499.002,74.585,495.733,77.877,491.729,77.877z M495.436,265.492c4.019,0,7.274,3.294,7.274,7.365
		c-0.002,4.085-3.256,7.408-7.274,7.408c-4.004,0-7.273-3.322-7.273-7.408C488.162,268.786,491.432,265.492,495.436,265.492z
		 M513.498,202.191c-4.321,6.844-11.963,11.62-20.501,11.62h-19.314v-42.819h-0.017v-29.813c4.323-6.844,11.964-11.62,20.502-11.62
		h19.315v42.818h0.015V202.191z"/>
	<rect x="945.472" y="51.222" fill="#DA691A" width="0" height="0"/>
</g>
</svg>
